<svg
 xmlns="http://www.w3.org/2000/svg"
 xmlns:xlink="http://www.w3.org/1999/xlink"
 width="976px" height="240px">
<path fill-rule="evenodd"  fill="rgb(21, 137, 238)"
 d="M228.000,240.000 L12.000,240.000 C5.372,240.000 -0.000,234.627 -0.000,228.000 L-0.000,12.000 C-0.000,5.373 5.372,-0.000 12.000,-0.000 L228.000,-0.000 C234.627,-0.000 240.000,5.373 240.000,12.000 L240.000,228.000 C240.000,234.627 234.627,240.000 228.000,240.000 ZM177.000,168.000 C182.523,168.000 187.000,163.523 187.000,158.000 C187.000,152.477 182.523,148.000 177.000,148.000 C171.477,148.000 167.000,152.477 167.000,158.000 C167.000,163.523 171.477,168.000 177.000,168.000 ZM109.500,73.204 C105.195,70.718 99.691,72.193 97.206,76.499 L52.206,154.467 C49.720,158.773 51.195,164.279 55.500,166.765 C59.804,169.251 65.309,167.776 67.794,163.470 L112.794,85.502 C115.279,81.196 113.804,75.690 109.500,73.204 ZM146.000,73.658 C141.695,71.172 136.191,72.648 133.706,76.954 L107.706,122.002 C105.220,126.308 106.695,131.814 111.000,134.300 C115.304,136.786 120.809,135.311 123.294,131.005 L149.294,85.957 C151.779,81.651 150.304,76.144 146.000,73.658 ZM183.500,73.204 C179.195,70.718 173.691,72.193 171.206,76.499 L126.206,154.467 C123.720,158.773 125.195,164.279 129.500,166.765 C133.804,169.251 139.309,167.776 141.794,163.470 L186.794,85.502 C189.279,81.196 187.804,75.690 183.500,73.204 Z"/>
<path fill-rule="evenodd"  fill="rgb(20, 31, 49)"
 d="M799.685,169.565 C794.645,169.565 790.305,165.364 790.305,160.184 L790.305,128.962 C790.305,115.942 784.844,111.461 776.584,111.461 C764.403,111.461 757.963,124.622 757.263,127.702 L757.263,160.184 C757.263,165.364 752.923,169.565 747.882,169.565 C742.842,169.565 738.502,165.364 738.502,160.184 L738.502,105.021 C738.502,99.841 742.842,95.641 747.882,95.641 C752.923,95.641 757.263,99.841 757.263,105.021 L757.263,110.341 C757.963,105.861 764.823,95.361 778.964,95.361 C795.345,95.361 809.066,104.741 809.066,127.702 L809.066,160.184 C809.066,165.364 804.725,169.565 799.685,169.565 ZM689.484,169.845 C674.363,169.845 652.522,158.084 652.522,132.603 C652.522,107.401 674.363,95.221 689.484,95.221 C704.604,95.221 726.446,107.401 726.446,132.603 C726.446,158.084 704.604,169.845 689.484,169.845 ZM689.484,111.461 C680.663,111.461 671.283,118.602 671.283,132.603 C671.283,146.463 680.663,153.604 689.484,153.604 C698.164,153.604 707.685,146.463 707.685,132.603 C707.685,118.602 698.164,111.461 689.484,111.461 ZM631.835,169.565 C626.795,169.565 622.455,165.364 622.455,160.184 L622.455,128.962 C622.455,115.942 616.994,111.461 608.734,111.461 C596.553,111.461 590.113,124.622 589.413,127.702 L589.413,160.324 C589.413,165.504 585.073,169.705 580.032,169.705 C574.992,169.705 570.652,165.504 570.652,160.324 L570.652,79.260 C570.652,74.079 574.992,69.879 580.032,69.879 C585.073,69.879 589.413,74.079 589.413,79.260 L589.413,110.341 C590.113,105.861 596.973,95.361 611.114,95.361 C627.495,95.361 641.216,104.741 641.216,127.702 L641.216,160.184 C641.216,165.364 636.875,169.565 631.835,169.565 ZM547.163,153.884 C549.123,153.884 550.104,153.884 551.924,153.744 C555.564,153.324 559.624,156.404 559.624,161.304 C559.624,168.304 553.884,169.985 544.363,169.985 C533.443,169.985 524.202,166.344 524.202,147.163 L524.202,112.161 L521.542,112.161 C517.062,112.161 513.281,108.661 513.281,104.041 C513.281,99.561 517.062,96.061 521.542,96.061 L524.202,96.061 L524.202,91.860 C524.202,86.680 528.542,82.480 533.583,82.480 C538.623,82.480 542.963,86.680 542.963,91.860 L542.963,96.061 L551.084,96.061 C555.564,96.061 559.204,99.561 559.204,104.041 C559.204,108.661 555.564,112.161 551.084,112.161 L542.963,112.161 L542.963,147.863 C542.963,151.924 544.363,153.884 547.163,153.884 ZM494.320,169.705 C489.280,169.705 484.940,165.644 484.940,160.604 C483.680,164.384 475.699,169.845 465.339,169.845 C450.078,169.845 431.177,157.944 431.177,132.463 C431.177,107.541 449.938,95.221 465.339,95.221 C477.239,95.221 482.559,100.541 484.940,102.781 L484.940,104.461 C484.940,99.281 489.140,95.080 494.320,95.080 C499.360,95.080 503.701,99.281 503.701,104.461 L503.701,160.324 C503.701,165.504 499.360,169.705 494.320,169.705 ZM467.859,111.321 C459.178,111.321 449.938,119.022 449.938,132.463 C449.938,146.043 459.178,153.744 467.859,153.744 C477.239,153.744 485.780,148.003 485.780,132.463 C485.780,116.922 477.239,111.321 467.859,111.321 ZM410.148,169.565 C404.968,169.565 400.627,165.084 400.627,160.044 L400.627,131.062 C400.627,117.902 394.187,111.181 386.067,111.181 C375.426,111.181 370.246,118.042 367.446,129.382 L367.446,160.044 C367.446,165.084 363.105,169.565 358.065,169.565 C352.745,169.565 348.545,165.084 348.545,160.044 L348.545,131.062 C348.545,117.902 342.244,111.181 333.704,111.181 C322.503,111.181 317.883,120.002 315.363,129.382 L315.363,160.044 C315.363,165.084 311.023,169.565 305.982,169.565 C300.662,169.565 296.322,165.084 296.322,160.044 L296.322,105.161 C296.322,100.121 300.662,95.641 305.982,95.641 C311.023,95.641 315.363,100.121 315.363,105.161 L315.363,111.041 C315.363,105.861 323.063,95.361 335.944,95.361 C347.285,95.361 358.765,99.421 364.085,112.581 C365.206,105.581 373.606,95.361 388.027,95.361 C405.248,95.361 419.529,104.461 419.529,130.922 L419.529,160.044 C419.529,165.084 415.328,169.565 410.148,169.565 Z"/>
<path fill-rule="evenodd"  fill="rgb(21, 137, 238)"
 d="M938.929,169.845 C923.808,169.845 901.967,158.084 901.967,132.603 C901.967,107.401 923.808,95.221 938.929,95.221 C954.049,95.221 975.891,107.401 975.891,132.603 C975.891,158.084 954.049,169.845 938.929,169.845 ZM938.929,111.461 C930.108,111.461 920.728,118.602 920.728,132.603 C920.728,146.463 930.108,153.604 938.929,153.604 C947.609,153.604 957.130,146.463 957.130,132.603 C957.130,118.602 947.609,111.461 938.929,111.461 ZM857.054,197.566 C849.073,197.566 843.753,195.746 839.273,194.206 C836.612,193.086 834.652,190.286 834.652,187.065 C834.652,182.865 838.153,179.365 842.353,179.365 C843.193,179.365 843.893,179.365 844.593,179.645 C848.513,180.765 852.853,181.465 857.054,181.465 C867.834,181.465 873.574,175.305 873.574,168.865 L873.574,162.424 L873.574,161.164 C873.574,160.884 873.574,160.744 873.574,160.604 C872.454,164.384 864.194,169.845 853.973,169.845 C838.713,169.845 819.812,157.944 819.812,132.463 C819.812,107.541 838.573,95.221 853.973,95.221 C865.874,95.221 871.194,100.541 873.574,102.781 L873.574,104.461 C873.574,99.281 877.775,95.080 882.955,95.080 C887.995,95.080 892.336,99.281 892.336,104.461 L892.335,160.324 C892.335,160.744 892.335,161.164 892.195,161.584 C892.335,161.864 892.335,162.144 892.336,162.424 L892.336,168.865 C892.336,190.286 870.494,197.566 857.054,197.566 ZM856.494,111.321 C847.813,111.321 838.573,119.022 838.573,132.463 C838.573,146.043 847.813,153.744 856.494,153.744 C865.874,153.744 874.415,148.003 874.415,132.463 C874.415,116.922 865.874,111.321 856.494,111.321 Z"/>
</svg>